PathFileType	4	(X/Y/Z)	13_2_31_p1_0-409.trc
DataRate	CameraRate	NumFrames	NumMarkers	Units	OrigDataRate	OrigDataStartFrame	OrigNumFrames
59.0	59.0	7	27	m	59.0	205	410
Frame#	Time	RHip			RKnee			RAnkle			RBigToe			RSmallToe			RHeel			LHip			LKnee			LAnkle			LBigToe			LSmallToe			LHeel			Neck			Head			Nose			RShoulder			RElbow			RWrist			RThumb			RIndex			RPinky			LShoulder			LElbow			LWrist			LThumb			LIndex			LPinky			
		X1	Y1	Z1	X2	Y2	Z2	X3	Y3	Z3	X4	Y4	Z4	X5	Y5	Z5	X6	Y6	Z6	X7	Y7	Z7	X8	Y8	Z8	X9	Y9	Z9	X10	Y10	Z10	X11	Y11	Z11	X12	Y12	Z12	X13	Y13	Z13	X14	Y14	Z14	X15	Y15	Z15	X16	Y16	Z16	X17	Y17	Z17	X18	Y18	Z18	X19	Y19	Z19	X20	Y20	Z20	X21	Y21	Z21	X22	Y22	Z22	X23	Y23	Z23	X24	Y24	Z24	X25	Y25	Z25	X26	Y26	Z26	X27	Y27	Z27	
205	3.4745762711864407	0.27292675324089	0.8150002747355952	0.5925098258990584	0.2781159028260707	1.0848896229622764	1.024348839936952	0.26122450661276336	1.3122564766288194	1.3832157059621069	0.2589803859128054	1.1022948043753704	1.4672261661498909	0.3263997113879774	1.1451056715685237	1.4540805313929968	0.24723856926551308	1.3834750770577944	1.4212301340627163	0.05868527926723865	0.8600611069227032	0.596350681757101	0.06875496447671647	1.0690847652315036	1.0140196015664098	0.07225402770281958	1.2691218639593225	1.3977391751541324	0.08836766343700833	1.093280138790195	1.4733187503770782	0.028466766473948812	1.1443867897299889	1.4657684922596221	0.09992975627265757	1.3555827981639779	1.4103778268415834	0.16789138623093372	0.6537769508553155	0.11646316171028147	0.1891791453683682	0.5163071656722374	-0.08871384572085818	0.1918686125941794	0.5411512709728807	0.0418280576971699	0.3068741936205644	0.6529108884577601	0.2039197500871911	0.40384660477188455	0.7661009510682716	0.46175109337931675	0.38988027335381736	0.7707845818657426	0.6936823623963447	0.3409438844879593	0.8519637138818457	0.7888549361300432	0.3452827685398901	0.8681727456284415	0.8054697440439756	0.37859398248910014	0.875889279916944	0.8065897076977516	0.028393844496212767	0.7084282773228245	0.19146321447524392	-0.017939428984791894	0.7461548993903517	0.4677641889292864	0.0015868227858189937	0.7875703825857288	0.7071801354241892	0.07393139525781758	0.7760955594188864	0.7980462552785624	0.05347245802816895	0.7895503747575618	0.8392437412251034	-0.007798312309988002	0.847217415748652	0.8279842864528495
206	3.4915254237288136	0.2729377523583045	0.8151039521141814	0.5925865719738305	0.2741786539824317	1.0694163790428828	1.023778708247115	0.261196007832888	1.3120594400746382	1.3832318265418084	0.25894397493346943	1.1023937268832427	1.467248142404056	0.3262812939246545	1.1448888655787637	1.454058754576725	0.2472009158287868	1.383409433985655	1.4214889932535677	0.05908777380952399	0.863071180986052	0.6004361165509768	0.06596217038112043	1.053833207857244	1.0136883604223097	0.07223375343845419	1.268894411005948	1.3977715980439214	0.08314204651124914	1.1104248583102256	1.4767837316590136	0.02841258046682342	1.1440368253107667	1.4655396916847472	0.09999686021634588	1.3558597830852592	1.4106239762250172	0.16337158377566266	0.668884826472698	0.11997702013270822	0.18896511223272322	0.5165200834905824	-0.08878393510174942	0.19182097566273892	0.5412219541867536	0.04184935875153677	0.3068069567447233	0.6529479246884675	0.20398366437092602	0.40400628046787956	0.765938551967278	0.4621648433381048	0.38963718610348985	0.770373434443632	0.6937986224382101	0.33677585483676964	0.8365934119022324	0.7855982062344606	0.3417024761970543	0.8559181334673007	0.8091024958258084	0.3780033193249341	0.8772751373320392	0.8104639236403176	0.02828534982329319	0.7084330550078612	0.1915612450191781	-0.018013579021560956	0.7461667242620575	0.4676782111593717	0.0015629636559285278	0.787494058917875	0.7071268872380483	0.0745082131251063	0.7745456140601628	0.7945985178613392	0.05358515081493886	0.7893312183685801	0.8390156974077114	-0.007741240405723332	0.8471169923415128	0.8281489113584849
207	3.5084745762711864	0.27327253269239676	0.8155790365821626	0.5963180094982862	0.2738054232971392	1.068970465781696	1.019961018846048	0.26118867233202386	1.3117521395473832	1.3831008561668947	0.25813999941912064	1.1045316883706031	1.4715169715978853	0.33067026129503413	1.1255011705532592	1.449946814804903	0.2516053987636257	1.386350449315676	1.4213862627841818	0.05859001583646533	0.8599918111833866	0.5964788170424323	0.0659620293246992	1.0537277128818372	1.0136669490325658	0.06921206328938957	1.2521611731830202	1.3955006159677301	0.08290050353110096	1.1103679865594438	1.4773327147634978	0.028442500760059487	1.1441659042697703	1.4657337502965386	0.10353741665213856	1.3486040979440612	1.4170154472551557	0.16373305449643485	0.6699913374505406	0.12036862852646742	0.1889047394093456	0.5164861445649768	-0.08882129169065593	0.1847331504848091	0.5283301205428856	0.04587258746115361	0.30677854014721256	0.6529188091831282	0.2039838296152658	0.4032976106831023	0.7635237008556133	0.4585270107199804	0.38954879249209595	0.7703955544736873	0.6936665119804942	0.3371208225853448	0.8366434469453785	0.7895011213782706	0.3416824152998451	0.855420697577289	0.8089849712688555	0.3776542337573991	0.8751422679696956	0.8070845966818698	0.028231886051692707	0.708408253302491	0.19160192417425526	-0.02356695122377711	0.7596110861738816	0.4662928766525705	0.0014699776696488979	0.7875430267781963	0.707047072570979	0.07389408302808416	0.7720010761802986	0.79096334005692	0.048027420483055784	0.8026383703948978	0.8357874732692473	-0.007678197425508066	0.8471804903770916	0.8285668033283994
208	3.5254237288135593	0.27331671358785503	0.8151877513349981	0.5963655036175652	0.2738771722393994	1.0688848443010386	1.0199375599355534	0.26112824632835796	1.3121513890425025	1.3832768462111253	0.2594080736286308	1.1031729178836	1.4669852934752914	0.3268281529729837	1.1461220352539445	1.4541051208349245	0.25172766822086806	1.3866844478752047	1.4213349615310513	0.0636279038057284	0.8456897149743171	0.5973726653267243	0.07107201865428091	1.0372065995812874	1.0087547377401263	0.06915335741053544	1.2518122739380941	1.395463190278488	0.08304997948405354	1.1109663840644801	1.4772820859634972	0.028393755720642764	1.1449416182356884	1.4662293737764114	0.0968829818306643	1.34154926334392	1.416808026212273	0.16307258720553355	0.6686801972201519	0.12015548170394656	0.18868334390545702	0.5163785259210399	-0.08880311784031374	0.1873738898376762	0.5399044060888897	0.046138058734003874	0.3062520484647021	0.6507228649452846	0.2008971217074673	0.4040115302116699	0.7660280963062066	0.46231824031955193	0.3857362647190558	0.7578046809119489	0.6946231834854067	0.3360984599007279	0.8477331461994906	0.7849722989271283	0.34200937943947235	0.8532971239512726	0.8019239967929641	0.37386384706637765	0.8593736644814023	0.806831150340768	0.02822040936410257	0.7083896121363464	0.19150912959423447	-0.03331285360240758	0.7694431700696287	0.46109006529782814	-0.0030452334575368652	0.7999375474461993	0.7030811713638796	0.06773616364647031	0.7714698562066258	0.7876337155747402	0.04441382291473469	0.8024079379570652	0.8355876574822216	-0.0018070100544442286	0.8375613040792156	0.8322546078679786
209	3.542372881355932	0.2729839476827707	0.8146427042315753	0.5924117142321828	0.2738207253308177	1.0686040572424549	1.0200798938063063	0.26116236326696773	1.3117654294928285	1.3832509566761673	0.25900346541949276	1.1019371897238077	1.4671393497868332	0.33414448568524907	1.1411635093752408	1.4527382258655133	0.25169229686501465	1.38608522146315	1.421075298275868	0.05860057643116689	0.8600987352989407	0.5963880351525594	0.0710400166966995	1.03725059642399	1.0090088817509804	0.06912715865702564	1.25160020934154	1.3955394529444867	0.08316881985641086	1.1098967878254515	1.476778706441077	0.025884396113169998	1.1271645282272371	1.4625650065639786	0.102157353590937	1.3502003214578435	1.417185147437895	0.1593382194239119	0.6697585986318731	0.12407020950333154	0.18857201522688888	0.5160945433491653	-0.08869437558771401	0.18437226284267064	0.5293345320309734	0.049371276873156865	0.30623703896862325	0.6507073061276245	0.2008009187210064	0.40306406032336406	0.7627778060629814	0.4544852347125986	0.38567307372607745	0.7575450733162186	0.6946408161799786	0.333094659399066	0.8334072244874123	0.7822872847821561	0.3418335052397443	0.8533861424561662	0.8018987367867362	0.37264317676373393	0.8572051898833393	0.80349067968329	0.028522388634527725	0.7106517678121119	0.19453504067909197	-0.03907079040105168	0.7832886062810456	0.45951125676922105	-0.003572744248529514	0.7967823518211418	0.6992491706176455	0.0699977891356427	0.7844151952565551	0.787220387818338	0.03906092057639723	0.8160287537552282	0.8357284552313976	-0.006972087969674504	0.850764905459655	0.8322347681058063
210	3.559322033898305	0.27327983212447954	0.8150797573046015	0.5963254722667343	0.27411556498367823	1.0685770274571262	1.0236171382113486	0.2612139153238974	1.3119018929754043	1.3830510809054093	0.25804856180699987	1.103988451159179	1.471496396633789	0.3343928650872495	1.1407628831100112	1.4525002681246346	0.2474253575773195	1.3833894781088474	1.4203624959139587	0.05864079646664313	0.8597973259346676	0.5965691498472385	0.06598988335450758	1.0533484437943985	1.01388078825436	0.0691871633761958	1.251723108317801	1.395433128901994	0.08829389913189865	1.0928328271938281	1.4733982409227346	0.02571077738332567	1.1275544780213864	1.4628924759594242	0.10314595928781627	1.347977442415848	1.4121604448120515	0.15928601261451097	0.6697891022709149	0.12411659854710232	0.1886218871544754	0.5162858404125743	-0.08874928145802168	0.18444038668752008	0.5292313294614669	0.04934336506322734	0.30669389562238575	0.6528140166215852	0.20391680733770515	0.4072771576495175	0.7508722580771989	0.4599435750419806	0.3855782079709219	0.7573361196928471	0.6946963331762939	0.33317296687106823	0.833505297666182	0.7819816679830588	0.3455844174067112	0.8387329747297797	0.7984905788830173	0.37341048419017114	0.8408746300359263	0.8035810647624618	0.02464084502474709	0.7081206362232862	0.1952680145664387	-0.04516411157417021	0.7970106267466777	0.4543932950960323	-0.00367044202825086	0.7968318081072054	0.6991800319685814	0.07084454884471651	0.7856719100572113	0.7872792490676046	0.04457555565510093	0.8016563557936867	0.8350899742049257	0.0009824378443441801	0.8357957298703026	0.8279881800710305
211	3.5762711864406778	0.273269678353526	0.8152626310828754	0.5963923876891725	0.2739706535896209	1.0684619381239775	1.0238595809101527	0.2611419401000524	1.31196724414126	1.3831805592581807	0.2591273387309504	1.1028548721083402	1.4670794047293987	0.3263919073931387	1.145171414111081	1.4540303080371326	0.25189927012594643	1.3863872452073287	1.4207979167389302	0.05866227681755244	0.8598337939384426	0.5965930245327311	0.06597479486871996	1.0532788596014773	1.0144744029488104	0.06923107091199407	1.2515538969415079	1.3953398444734932	0.0832978845811542	1.1104446870329165	1.4765687387682644	0.025874163912240532	1.127851873601671	1.462844791677117	0.10218537542581317	1.3468355248251165	1.4174857255905833	0.15925698052474013	0.6698018798845092	0.12414055935009961	0.1884908342515804	0.516296160729448	-0.0887640315949505	0.18448305400692644	0.529308135414242	0.04928481734443858	0.3068643145819563	0.6536476468773587	0.20741071175917297	0.41161998791381627	0.7521448692939057	0.4635441674507192	0.3888795152558059	0.7428630954186208	0.6953471766422772	0.3324430628743748	0.8345790104183582	0.7855461138301997	0.3458177554223005	0.8386749058884058	0.8019944546488784	0.3731222412538043	0.8409308562172595	0.8105478325841654	0.02845428916957374	0.7107158427763434	0.1946218551372049	-0.04489060766031193	0.7996897917348943	0.4582314575270942	-0.007887960490778596	0.7948899550554447	0.6994791972887496	0.0686455918947978	0.7727264343873318	0.7876428858168906	0.03963271119531537	0.8141085441536745	0.8326817832957631	-0.007726015701168239	0.8472241214455393	0.8278159077893577
